<svg width="17" height="16" viewBox="0 0 17 16" fill="none" xmlns="http://www.w3.org/2000/svg">
<path d="M15.6877 8.41146H1.31274C1.14024 8.41146 1.00024 8.22698 1.00024 7.99967C1.00024 7.77237 1.14024 7.58789 1.31274 7.58789H15.6877C15.8602 7.58789 16.0002 7.77237 16.0002 7.99967C16.0002 8.22698 15.8602 8.41146 15.6877 8.41146Z" fill="#00ADE8" stroke="#00ADE8" stroke-width="0.5"/>
<path d="M8.08347 15C7.9768 15 7.87014 14.9596 7.78847 14.8797L1.12187 8.29121C0.959375 8.13061 0.959375 7.86954 1.12187 7.70895C1.28437 7.54835 1.54854 7.54835 1.71103 7.70895L8.37763 14.2975C8.54013 14.4581 8.54013 14.7191 8.37763 14.8797C8.2968 14.9596 8.19013 15 8.08347 15Z" fill="#00ADE8" stroke="#00ADE8" stroke-width="0.5"/>
<path d="M1.41687 8.41147C1.31021 8.41147 1.20354 8.37112 1.12187 8.29123C0.959375 8.13064 0.959375 7.86957 1.12187 7.70897L7.78847 1.12045C7.95097 0.959851 8.21513 0.959851 8.37763 1.12045C8.54013 1.28104 8.54013 1.54211 8.37763 1.70271L1.71103 8.29123C1.6302 8.37112 1.52354 8.41147 1.41687 8.41147Z" fill="#00ADE8" stroke="#00ADE8" stroke-width="0.5"/>
</svg>
