<svg width="120" height="120" viewBox="0 0 120 120" fill="none" xmlns="http://www.w3.org/2000/svg">
<path d="M114 38H104V34C103.989 31.4664 102.389 29.2125 100 28.368V18C99.9914 13.1842 96.5517 9.05854 91.816 8.184C90.9414 3.44829 86.8158 0.00853728 82 0H28C27.4696 0.00011328 26.961 0.210901 26.586 0.586L0.586 26.586C0.210901 26.961 0.00011328 27.4696 0 28V82C0 83.1046 0.89543 84 2 84C3.10457 84 4 83.1046 4 82V30H20C25.5201 29.9934 29.9934 25.5201 30 20V4H82C85.3137 4 88 6.68629 88 10V28H66C62.6863 28 60 30.6863 60 34V38H50C46.6863 38 44 40.6863 44 44V46C44.0091 48.6048 45.7017 50.9047 48.186 51.688L54.358 104H10C6.68629 104 4 101.314 4 98C4 96.8954 3.10457 96 2 96C0.89543 96 0 96.8954 0 98C0.00853728 102.816 3.44829 106.941 8.184 107.816C9.05854 112.552 13.1842 115.991 18 116H55.942C56.7822 118.395 59.0423 119.998 61.58 120H102.42C105.474 120.005 108.041 117.711 108.38 114.676L115.814 51.688C118.298 50.9047 119.991 48.6048 120 46V44C120 40.6863 117.314 38 114 38ZM20 26H6.828L26 6.828V20C26 23.3137 23.3137 26 20 26ZM92 12.368C94.3887 13.2125 95.9895 15.4664 96 18V28H92V12.368ZM64 34C64 32.8954 64.8954 32 66 32H98C99.1045 32 100 32.8954 100 34V38H64V34ZM12.368 108H54.832L55.302 112H18C15.4664 111.989 13.2125 110.389 12.368 108ZM104.4 114.22C104.288 115.233 103.433 115.999 102.414 116H61.58C60.5536 115.999 59.6946 115.221 59.592 114.2L52.25 52H111.75L104.4 114.22ZM116 46C116 47.1046 115.105 48 114 48H50C48.8954 48 48 47.1046 48 46V44C48 42.8954 48.8954 42 50 42H114C115.105 42 116 42.8954 116 44V46Z" fill="#428DFF"/>
</svg>
