<svg width="120" height="120" viewBox="0 0 120 120" fill="none" xmlns="http://www.w3.org/2000/svg">
<g clip-path="url(#clip0_55_667)">
<path d="M37.18 57.9999H100C101.105 57.9999 102 58.8953 102 59.9999V114C101.993 116.206 100.206 117.993 98 118H34C31.7936 117.993 30.0066 116.206 30 114V65.1799L37.18 57.9999Z" fill="#E8EDFC"/>
<path d="M100 57.9999H94.0001C95.1047 57.9999 96.0001 58.8953 96.0001 59.9999V114C95.9935 116.206 94.2065 117.993 92.0001 118H98.0001C100.207 117.993 101.994 116.206 102 114V59.9999C102 58.8953 101.105 57.9999 100 57.9999Z" fill="#CAD9FC"/>
<path d="M74.4597 20.7199L20.7197 74.4599C19.9397 75.2353 18.6798 75.2353 17.8997 74.4599L7.99973 64.5599C7.25082 63.8125 6.82996 62.7979 6.82996 61.7399C6.82996 60.6818 7.25082 59.6672 7.99973 58.9199L12.2397 54.6799L27.7997 39.1199L39.1197 27.7999L54.6797 12.2399L58.9197 7.99985C59.6671 7.25094 60.6817 6.83008 61.7397 6.83008C62.7978 6.83008 63.8124 7.25094 64.5597 7.99985L74.4597 17.8999C75.2352 18.6799 75.2352 19.9398 74.4597 20.7199Z" fill="#E8EDFC"/>
<path d="M74.4596 17.8999L64.5596 7.99985C63.8122 7.25094 62.7976 6.83008 61.7396 6.83008C60.6815 6.83008 59.6669 7.25094 58.9196 7.99985L58.7396 8.17985L68.4596 17.8999C69.235 18.6799 69.235 19.9398 68.4596 20.7199L16.3096 72.8699L17.9096 74.4599C18.6896 75.2353 19.9495 75.2353 20.7296 74.4599L74.4596 20.7199C75.235 19.9398 75.235 18.6799 74.4596 17.8999Z" fill="#CAD9FC"/>
<path d="M26.3784 40.528L40.5184 26.388L54.6584 40.528L40.5184 54.668L26.3784 40.528Z" fill="#A4C2F7"/>
<path d="M40.5267 26.3859L37.5267 29.3859L48.6687 40.5279L37.5267 51.6699L40.5267 54.6699L54.6687 40.5279L40.5267 26.3859Z" fill="#7FACFA"/>
<path d="M57.9999 57.9999H73.9999V118H57.9999V57.9999Z" fill="#A4C2F7"/>
<path d="M67.9989 57.9999H73.9989V118H67.9989V57.9999Z" fill="#7FACFA"/>
<path d="M39.1197 27.8L27.7997 39.12C22.697 38.3872 18.9875 33.8955 19.2325 28.7463C19.4775 23.5971 23.5967 19.4779 28.7459 19.2329C33.8952 18.9879 38.3869 22.6974 39.1197 27.8Z" fill="#E8EDFC"/>
<path d="M27.8001 39.1199L12.2401 54.6799L3.76008 46.1799C2.27079 44.6917 1.67046 42.5319 2.17819 40.4886C2.68593 38.4454 4.22744 36.8178 6.24008 36.1999L19.6601 32.1199C20.7795 35.8388 23.9555 38.5699 27.8001 39.1199Z" fill="#A4C2F7"/>
<path d="M54.6788 12.2398L39.1188 27.7998C38.5688 23.9552 35.8377 20.7793 32.1188 19.6598L36.1988 6.23983C36.8167 4.22719 38.4443 2.68569 40.4875 2.17795C42.5308 1.67022 44.6906 2.27055 46.1788 3.75983L54.6788 12.2398Z" fill="#A4C2F7"/>
<path d="M12.2401 54.68L8.00008 58.92C7.25116 59.6673 6.8303 60.6819 6.8303 61.74C6.8303 62.798 7.25116 63.8126 8.00008 64.56L17.9001 74.46C18.6802 75.2354 19.94 75.2354 20.7201 74.46L22.3201 72.87L14.0001 64.56C13.2512 63.8126 12.8303 62.798 12.8303 61.74C12.8303 60.6819 13.2512 59.6673 14.0001 58.92L18.2401 54.68L9.76008 46.18C8.27079 44.6918 7.67046 42.532 8.1782 40.4887C8.68593 38.4455 10.2274 36.8179 12.2401 36.2L25.6601 32.12C24.5794 28.5912 25.5351 24.7541 28.1447 22.1445C30.7543 19.535 34.5913 18.5792 38.1201 19.66L42.2001 6.23996C42.6406 4.78713 43.625 3.56049 44.9481 2.81596C43.3661 1.8972 41.4515 1.75036 39.7479 2.41714C38.0443 3.08391 36.7381 4.49146 36.2001 6.23996L32.1201 19.66C28.5913 18.5792 24.7543 19.535 22.1447 22.1445C19.5351 24.7541 18.5794 28.5912 19.6601 32.12L6.24008 36.2C4.22744 36.8179 2.68593 38.4455 2.17819 40.4887C1.67046 42.532 2.27079 44.6918 3.76008 46.18L12.2401 54.68Z" fill="white"/>
<path d="M30 71.1799V114C30.0066 116.206 31.7936 117.993 34 118H40C37.7936 117.993 36.0066 116.206 36 114V65.1799L30 71.1799Z" fill="white"/>
<path d="M27.9999 98H31.9999V114H27.9999V98Z" fill="white"/>
<path d="M30.0391 108C28.9345 108.005 28.0346 107.114 28.0291 106.01C28.0236 104.905 28.9145 104.005 30.0191 104H30.0391C31.1436 104 32.0391 104.895 32.0391 106C32.0391 107.104 31.1436 108 30.0391 108Z" fill="#428DFF"/>
<path d="M9.41546 54.6699L6.58546 57.4979C4.24734 59.8434 4.24734 63.6384 6.58546 65.9839L16.4855 75.8819C18.0475 77.4434 20.5795 77.4434 22.1415 75.8819L27.9995 70.0259V97.9999C27.9995 99.1045 28.8949 99.9999 29.9995 99.9999C31.104 99.9999 31.9995 99.1045 31.9995 97.9999V66.0259L38.0255 59.9999H55.9995V116H33.9995C32.8949 116 31.9995 115.104 31.9995 114C31.9995 112.895 31.104 112 29.9995 112C28.8949 112 27.9995 112.895 27.9995 114C27.9995 117.314 30.6858 120 33.9995 120H97.9995C101.313 120 103.999 117.314 103.999 114V59.9999C103.999 57.7908 102.209 55.9999 99.9995 55.9999H42.0255L56.0835 41.9419L75.8835 22.1419C77.445 20.5799 77.445 18.0479 75.8835 16.4859L65.9855 6.58589C64.8602 5.46045 63.3339 4.82817 61.7425 4.82817C60.151 4.82817 58.6247 5.46045 57.4995 6.58589L54.6695 9.41589L47.5995 2.34388C45.6133 0.355826 42.7296 -0.444291 40.003 0.236132C37.2764 0.916555 35.1067 2.97773 34.2875 5.66588L30.7315 17.3639C27.0541 16.858 23.3519 18.1027 20.7271 20.7275C18.1023 23.3523 16.8575 27.0545 17.3635 30.7319L5.65946 34.2879C2.97227 35.1086 0.912624 37.2789 0.23348 40.0053C-0.445665 42.7317 0.355262 45.6145 2.34346 47.5999L9.41546 54.6699ZM19.3135 73.0539L9.41546 63.1559C9.0399 62.7808 8.82889 62.2717 8.82889 61.7409C8.82889 61.2101 9.0399 60.701 9.41546 60.3259L26.3855 43.3559L37.6995 54.6699L35.8195 56.5479C35.7875 56.5779 35.7575 56.6079 35.7275 56.6399L19.3135 73.0539ZM99.9995 114C99.9995 115.104 99.104 116 97.9995 116H75.9995V59.9999H99.9995V114ZM71.9995 59.9999V116H59.9995V59.9999H71.9995ZM40.5275 51.8419L29.2135 40.5279L40.5275 29.2139L51.8415 40.5279L40.5275 51.8419ZM60.3275 9.41589C60.7026 9.04033 61.2116 8.82931 61.7425 8.82931C62.2733 8.82931 62.7823 9.04033 63.1575 9.41589L73.0575 19.3119L54.6695 37.6999L43.3555 26.3859L60.3275 9.41589ZM38.1115 6.83389C38.5205 5.48884 39.6056 4.45727 40.9696 4.11678C42.3337 3.77628 43.7763 4.17686 44.7695 5.17189L51.8415 12.2439L40.0415 24.0439C39.4558 22.8134 38.6652 21.6914 37.7035 20.7259C36.7828 19.8265 35.7215 19.0834 34.5615 18.5259L38.1115 6.83389ZM23.5555 23.5559C26.6824 20.4381 31.7425 20.4381 34.8695 23.5559C35.8652 24.5502 36.5759 25.7934 36.9275 27.1559L27.1555 36.9279C25.7934 36.5763 24.5504 35.8663 23.5555 34.8719C20.4375 31.7442 20.4375 26.6835 23.5555 23.5559ZM4.12146 40.9779C4.45301 39.6116 5.48215 38.5224 6.82746 38.1139L18.5315 34.5579C19.0882 35.7184 19.8313 36.7798 20.7315 37.6999C21.697 38.6616 22.819 39.4522 24.0495 40.0379L12.2495 51.8379L5.17146 44.7699C4.17492 43.7809 3.77557 42.3386 4.12146 40.9779Z" fill="#428DFF"/>
<path d="M111.999 41.9999C111.999 43.1044 112.894 43.9999 113.999 43.9999C115.104 43.9999 115.999 43.1044 115.999 41.9999C116.19 38.376 114.316 34.9556 111.159 33.1658C107.158 31.3092 102.467 31.7566 98.8889 34.3358C92.8889 38.3358 83.1609 46.1099 82.7489 46.4379C81.8863 47.1282 81.7466 48.3872 82.437 49.2499C83.1273 50.1125 84.3863 50.2522 85.2489 49.5619C85.3469 49.4819 95.2489 41.5619 101.109 37.6639C103.459 35.9019 106.573 35.5318 109.271 36.6938C111.131 37.785 112.194 39.8521 111.999 41.9999Z" fill="#428DFF"/>
<path d="M115.159 19.1658C111.158 17.3092 106.467 17.7566 102.889 20.3358C96.8893 24.3358 87.1613 32.1098 86.7493 32.4378C86.1912 32.8844 85.9138 33.5948 86.0216 34.3014C86.1293 35.008 86.6058 35.6034 87.2716 35.8634C87.9373 36.1234 88.6912 36.0084 89.2493 35.5618C89.3473 35.4818 99.2493 27.5618 105.109 23.6638C107.46 21.9019 110.573 21.5318 113.271 22.6938C115.131 23.785 116.194 25.8521 115.999 27.9998C115.999 29.1044 116.895 29.9998 117.999 29.9998C119.104 29.9998 119.999 29.1044 119.999 27.9998C120.19 24.376 118.316 20.9556 115.159 19.1658Z" fill="#428DFF"/>
<path d="M85.9999 3.99988C90.3099 3.99988 93.2779 5.41188 94.1419 7.87388C95.1819 10.8399 93.0658 14.9859 88.7418 18.4379C83.1418 22.9159 76.7418 28.4379 76.6858 28.4859C76.1255 28.9469 75.8588 29.6753 75.9891 30.3892C76.1193 31.103 76.6259 31.6904 77.3129 31.9239C78 32.1574 78.7596 32.0005 79.2978 31.5139C79.3618 31.4599 85.6978 25.9919 91.2418 21.5619C96.9899 16.9619 99.5419 11.2119 97.9079 6.54988C96.4559 2.38788 92.1119 -0.00012207 85.9999 -0.00012207C84.8953 -0.00012207 83.9999 0.895308 83.9999 1.99988C83.9999 3.10445 84.8953 3.99988 85.9999 3.99988Z" fill="#428DFF"/>
<path d="M77.9993 42C79.1038 42 79.9993 41.1046 79.9993 40C79.9993 38.8954 79.1038 38 77.9993 38C76.8947 38 75.9993 38.8954 75.9993 40C75.9993 41.1046 76.8947 42 77.9993 42Z" fill="#428DFF"/>
<path d="M67.9988 43.9999C69.1033 43.9999 69.9988 43.1044 69.9988 41.9999C69.9988 40.8953 69.1033 39.9999 67.9988 39.9999C66.8942 39.9999 65.9988 40.8953 65.9988 41.9999C65.9988 43.1044 66.8942 43.9999 67.9988 43.9999Z" fill="#428DFF"/>
<path d="M105.999 47.9999C107.104 47.9999 107.999 47.1045 107.999 45.9999C107.999 44.8953 107.104 43.9999 105.999 43.9999C104.895 43.9999 103.999 44.8953 103.999 45.9999C103.999 47.1045 104.895 47.9999 105.999 47.9999Z" fill="#428DFF"/>
<path d="M107.999 12C109.104 12 109.999 11.1046 109.999 10C109.999 8.89543 109.104 8 107.999 8C106.895 8 105.999 8.89543 105.999 10C105.999 11.1046 106.895 12 107.999 12Z" fill="#428DFF"/>
<path d="M73.999 51.9999C75.1036 51.9999 75.999 51.1044 75.999 49.9999C75.999 48.8953 75.1036 47.9999 73.999 47.9999C72.8945 47.9999 71.999 48.8953 71.999 49.9999C71.999 51.1044 72.8945 51.9999 73.999 51.9999Z" fill="#428DFF"/>
</g>
<defs>
<clipPath id="clip0_55_667">
<rect width="120" height="120" fill="white"/>
</clipPath>
</defs>
</svg>
