<svg width="20" height="20" viewBox="0 0 20 20" fill="none" xmlns="http://www.w3.org/2000/svg">
<path fill-rule="evenodd" clip-rule="evenodd" d="M10 20C4.47727 20 0 15.5227 0 10C0 4.47727 4.47727 0 10 0C15.5227 0 20 4.47727 20 10C20 15.5227 15.5227 20 10 20ZM14.7227 14.7227C15.0641 14.3805 15.0941 13.8364 14.7918 13.4591L12.6355 10.7682C12.4608 10.5503 12.3656 10.2793 12.3656 10C12.3656 9.7207 12.4608 9.44974 12.6355 9.23182L14.7918 6.54091C14.9376 6.3587 15.011 6.12914 14.9981 5.89615C14.9852 5.66317 14.8869 5.44313 14.7219 5.27813C14.5569 5.11314 14.3368 5.01477 14.1038 5.00187C13.8709 4.98896 13.6413 5.06242 13.4591 5.20818L10.7682 7.36455C10.5503 7.53924 10.2793 7.63443 10 7.63443C9.7207 7.63443 9.44974 7.53924 9.23182 7.36455L6.54091 5.20818C6.3587 5.06242 6.12914 4.98896 5.89615 5.00187C5.66317 5.01477 5.44313 5.11314 5.27813 5.27813C5.11314 5.44313 5.01477 5.66317 5.00187 5.89615C4.98896 6.12914 5.06242 6.3587 5.20818 6.54091L7.36455 9.23182C7.53924 9.44974 7.63443 9.7207 7.63443 10C7.63443 10.2793 7.53924 10.5503 7.36455 10.7682L5.20818 13.4591C5.06242 13.6413 4.98896 13.8709 5.00187 14.1038C5.01477 14.3368 5.11314 14.5569 5.27813 14.7219C5.44313 14.8869 5.66317 14.9852 5.89615 14.9981C6.12914 15.011 6.3587 14.9376 6.54091 14.7918L9.23182 12.6355C9.44974 12.4608 9.7207 12.3656 10 12.3656C10.2793 12.3656 10.5503 12.4608 10.7682 12.6355L13.4591 14.7918C13.8364 15.0941 14.3805 15.0641 14.7227 14.7223V14.7227Z" fill="#62677A"/>
</svg>
