<svg width="22" height="22" viewBox="0 0 22 22" fill="none" xmlns="http://www.w3.org/2000/svg">
<path d="M15.1404 14.4673L20.852 20.1789C21.3008 20.6276 20.6276 21.3008 20.1789 20.852L14.4673 15.1404C13.0381 16.4114 11.1552 17.1835 9.09176 17.1835C4.6225 17.1835 1 13.5613 1 9.09176C1 4.6225 4.62219 1 9.09176 1C13.561 1 17.1835 4.62219 17.1835 9.09176C17.1835 11.1551 16.4115 13.038 15.1404 14.4673ZM1.95197 9.09176C1.95197 13.0356 5.14824 16.2316 9.09176 16.2316C13.0356 16.2316 16.2316 13.0353 16.2316 9.09176C16.2316 5.14797 13.0353 1.95197 9.09176 1.95197C5.14797 1.95197 1.95197 5.14824 1.95197 9.09176Z" fill="#343747" stroke="#343747" stroke-width="0.25"/>
</svg>
