<svg width="31" height="31" viewBox="0 0 31 31" fill="none" xmlns="http://www.w3.org/2000/svg">
<path d="M18.4744 30.8H12.7856C11.738 30.8 10.8894 29.9514 10.8894 28.9037V20.3706H2.35624C1.30858 20.3706 0.459991 19.522 0.459991 18.4743V12.7856C0.459991 11.7379 1.30858 10.8893 2.35624 10.8893H10.8894V2.35621C10.8894 1.30855 11.738 0.459961 12.7856 0.459961H18.4744C19.522 0.459961 20.3706 1.30855 20.3706 2.35621V10.8893H28.9037C29.9514 10.8893 30.8 11.7379 30.8 12.7856V18.4743C30.8 19.522 29.9514 20.3706 28.9037 20.3706H20.3706V28.9037C20.3706 29.9514 19.522 30.8 18.4744 30.8Z" fill="#00CCFF"/>
</svg>
